<svg xmlns="http://www.w3.org/2000/svg" width="1120" height="900" viewBox="0 0 1120 900">
  <rect width="1120" height="900" fill="#14161A"/>
  <text x="58" y="56" fill="#D8DDE4" font-family="Arial" font-size="24" font-weight="700">D3 Component · Reports Mode</text>
  <text x="58" y="86" fill="#8F98A3" font-family="Arial" font-size="14">Reports become a selectable workbench mode, not another block in a long dashboard.</text>

  <rect x="58" y="124" width="300" height="718" rx="12" fill="#1E2228" stroke="#343A43"/>
  <text x="86" y="164" fill="#D8DDE4" font-family="Arial" font-size="16" font-weight="700">Left rail</text>
  <rect x="86" y="198" width="244" height="40" rx="6" fill="#181B20" stroke="#2D333C"/>
  <text x="106" y="224" fill="#9EA7B2" font-family="Arial" font-size="13">Needs Review</text>
  <text x="308" y="224" fill="#9EA7B2" font-family="Arial" font-size="13" text-anchor="end">6</text>
  <rect x="86" y="248" width="244" height="40" rx="6" fill="#181B20" stroke="#2D333C"/>
  <text x="106" y="274" fill="#9EA7B2" font-family="Arial" font-size="13">Threads</text>
  <text x="308" y="274" fill="#9EA7B2" font-family="Arial" font-size="13" text-anchor="end">9</text>
  <rect x="86" y="298" width="244" height="40" rx="6" fill="#20242A" stroke="#343A43"/>
  <text x="106" y="324" fill="#D8DDE4" font-family="Arial" font-size="13" font-weight="700">Reports</text>
  <text x="308" y="324" fill="#D8DDE4" font-family="Arial" font-size="13" text-anchor="end">3</text>
  <text x="86" y="420" fill="#77808A" font-family="Arial" font-size="12">Reports are lower-frequency output.</text>
  <text x="86" y="448" fill="#77808A" font-family="Arial" font-size="12">They should not compete with active queues.</text>

  <rect x="390" y="124" width="330" height="718" rx="12" fill="#1E2228" stroke="#343A43"/>
  <text x="418" y="164" fill="#D8DDE4" font-family="Arial" font-size="16" font-weight="700">Center list: Reports</text>
  <rect x="418" y="198" width="274" height="78" rx="7" fill="#242B34" stroke="#343A43"/>
  <text x="440" y="228" fill="#D8DDE4" font-family="Arial" font-size="14" font-weight="700">Daily Brief</text>
  <text x="440" y="252" fill="#8F98A3" font-family="Arial" font-size="12">Generated today · 42 mails</text>
  <rect x="418" y="290" width="274" height="78" rx="7" fill="#20242A" stroke="#343A43"/>
  <text x="440" y="320" fill="#D8DDE4" font-family="Arial" font-size="14" font-weight="700">Thread Report</text>
  <text x="440" y="344" fill="#8F98A3" font-family="Arial" font-size="12">Selected thread · 5 messages</text>
  <rect x="418" y="382" width="274" height="78" rx="7" fill="#20242A" stroke="#343A43"/>
  <text x="440" y="412" fill="#D8DDE4" font-family="Arial" font-size="14" font-weight="700">Single Mail Report</text>
  <text x="440" y="436" fill="#8F98A3" font-family="Arial" font-size="12">Selected mail · markdown</text>
  <rect x="418" y="720" width="132" height="34" rx="5" fill="#24303A"/>
  <text x="448" y="742" fill="#D7DCE2" font-family="Arial" font-size="12">Generate</text>
  <rect x="562" y="720" width="108" height="34" rx="5" fill="#1B1F25" stroke="#303740"/>
  <text x="591" y="742" fill="#AAB3BD" font-family="Arial" font-size="12">Refresh</text>

  <rect x="752" y="124" width="310" height="718" rx="12" fill="#1E2228" stroke="#343A43"/>
  <text x="780" y="164" fill="#D8DDE4" font-family="Arial" font-size="16" font-weight="700">Right preview</text>
  <text x="780" y="194" fill="#8F98A3" font-family="Arial" font-size="12">Daily Brief · generated today</text>
  <rect x="780" y="226" width="234" height="118" rx="7" fill="#20242A" stroke="#303740"/>
  <text x="802" y="258" fill="#D8DDE4" font-family="Arial" font-size="14" font-weight="700">Summary preview</text>
  <text x="802" y="286" fill="#AEB7C2" font-family="Arial" font-size="12">Top actions, risks, waiting items, and notices.</text>
  <rect x="780" y="370" width="234" height="92" rx="7" fill="#20242A" stroke="#303740"/>
  <text x="802" y="402" fill="#D8DDE4" font-family="Arial" font-size="14" font-weight="700">Source scope</text>
  <text x="802" y="430" fill="#AEB7C2" font-family="Arial" font-size="12">Today · analysed items only</text>
  <rect x="780" y="494" width="112" height="34" rx="5" fill="#2B6F88"/>
  <text x="807" y="516" fill="#F4F8FB" font-family="Arial" font-size="12">Open</text>
  <rect x="904" y="494" width="112" height="34" rx="5" fill="#20242A" stroke="#3A414B"/>
  <text x="930" y="516" fill="#B7C0CA" font-family="Arial" font-size="12">Export</text>
  <rect x="780" y="544" width="234" height="34" rx="5" fill="#20242A" stroke="#3A414B"/>
  <text x="838" y="566" fill="#B7C0CA" font-family="Arial" font-size="12">Regenerate</text>
  <text x="780" y="760" fill="#77808A" font-family="Arial" font-size="12">Usage: report list in center, preview/actions on right.</text>
</svg>