<svg xmlns="http://www.w3.org/2000/svg" width="1440" height="900" viewBox="0 0 1440 900">
  <rect width="1440" height="900" fill="#15171B"/>
  <rect x="0" y="0" width="52" height="900" fill="#111317"/>
  <rect x="52" y="0" width="248" height="900" fill="#181B20"/>
  <rect x="300" y="0" width="1140" height="900" fill="#15171B"/>

  <rect x="14" y="28" width="24" height="24" rx="5" fill="#2B6F88"/>
  <rect x="14" y="76" width="24" height="24" rx="5" fill="#2A2F36"/>
  <rect x="14" y="124" width="24" height="24" rx="5" fill="#2A2F36"/>

  <text x="76" y="40" fill="#D8DDE4" font-family="Arial" font-size="14" font-weight="700">EASY MAIL</text>
  <text x="76" y="66" fill="#8F98A3" font-family="Arial" font-size="12">Queue filters</text>
  <rect x="72" y="94" width="204" height="34" rx="6" fill="#242B34" stroke="#4A3B36"/>
  <text x="88" y="116" fill="#F0D4CA" font-family="Arial" font-size="12">Attention Required</text>
  <text x="252" y="116" fill="#F0D4CA" font-family="Arial" font-size="12" text-anchor="end">6</text>
  <rect x="72" y="136" width="204" height="34" rx="6" fill="#20242A" stroke="#343A43"/>
  <text x="88" y="158" fill="#D8DDE4" font-family="Arial" font-size="12">Ready to Analyze</text>
  <text x="252" y="158" fill="#D8DDE4" font-family="Arial" font-size="12" text-anchor="end">18</text>
  <rect x="72" y="178" width="204" height="34" rx="6" fill="#181B20" stroke="#2D333C"/>
  <text x="88" y="200" fill="#9EA7B2" font-family="Arial" font-size="12">Recently Analysed</text>
  <text x="252" y="200" fill="#9EA7B2" font-family="Arial" font-size="12" text-anchor="end">24</text>
  <rect x="72" y="220" width="204" height="34" rx="6" fill="#181B20" stroke="#2D333C"/>
  <text x="88" y="242" fill="#9EA7B2" font-family="Arial" font-size="12">Threads</text>
  <text x="252" y="242" fill="#9EA7B2" font-family="Arial" font-size="12" text-anchor="end">9</text>
  <rect x="72" y="262" width="204" height="34" rx="6" fill="#181B20" stroke="#2D333C"/>
  <text x="88" y="284" fill="#9EA7B2" font-family="Arial" font-size="12">Reports</text>

  <text x="330" y="40" fill="#D8DDE4" font-family="Arial" font-size="20" font-weight="700">Direction 2 · Review Queues</text>
  <text x="330" y="66" fill="#8F98A3" font-family="Arial" font-size="13">Queue-first IA. Actions move into lanes; the global command bar is intentionally small.</text>

  <rect x="330" y="92" width="1080" height="78" rx="10" fill="#1F2329" stroke="#343A43"/>
  <text x="358" y="124" fill="#D8DDE4" font-family="Arial" font-size="15" font-weight="700">Run state: Idle</text>
  <text x="358" y="148" fill="#8F98A3" font-family="Arial" font-size="12">Ready to process queue lanes · last update 18:32 · batch size 5</text>
  <rect x="900" y="114" width="118" height="32" rx="5" fill="#2B6F88"/>
  <text x="923" y="135" fill="#F4F8FB" font-family="Arial" font-size="12" font-weight="700">Fetch New</text>
  <rect x="1030" y="114" width="120" height="32" rx="5" fill="#20242A" stroke="#3A414B"/>
  <text x="1054" y="135" fill="#B7C0CA" font-family="Arial" font-size="12">More History</text>
  <rect x="1162" y="114" width="86" height="32" rx="5" fill="#20242A" stroke="#3A414B"/>
  <text x="1182" y="135" fill="#B7C0CA" font-family="Arial" font-size="12">Refresh</text>
  <rect x="1260" y="114" width="104" height="32" rx="5" fill="#1B1F25" stroke="#303740"/>
  <text x="1286" y="135" fill="#AAB3BD" font-family="Arial" font-size="12">Settings</text>

  <rect x="330" y="194" width="250" height="632" rx="10" fill="#1F2329" stroke="#4A3B36"/>
  <text x="354" y="226" fill="#F0D4CA" font-family="Arial" font-size="15" font-weight="700">Attention Required</text>
  <text x="548" y="226" fill="#C9A89C" font-family="Arial" font-size="12" text-anchor="end">6</text>
  <rect x="354" y="248" width="202" height="64" rx="6" fill="#24272E" stroke="#4A3B36"/>
  <text x="372" y="274" fill="#F1F4F7" font-family="Arial" font-size="13" font-weight="700">Review item</text>
  <text x="372" y="296" fill="#C9A89C" font-family="Arial" font-size="11">Manual decision</text>
  <rect x="354" y="324" width="202" height="64" rx="6" fill="#24272E" stroke="#4A3B36"/>
  <text x="372" y="350" fill="#F1F4F7" font-family="Arial" font-size="13" font-weight="700">Thread review</text>
  <text x="372" y="372" fill="#C9A89C" font-family="Arial" font-size="11">Partial context</text>
  <rect x="354" y="400" width="202" height="64" rx="6" fill="#24272E" stroke="#4A3B36"/>
  <text x="372" y="426" fill="#F1F4F7" font-family="Arial" font-size="13" font-weight="700">High level mail</text>
  <text x="372" y="448" fill="#C9A89C" font-family="Arial" font-size="11">Open review</text>
  <rect x="354" y="738" width="202" height="34" rx="5" fill="#2C333D" stroke="#5A4B42"/>
  <text x="414" y="760" fill="#F0D4CA" font-family="Arial" font-size="12">Review lane</text>

  <rect x="602" y="194" width="250" height="632" rx="10" fill="#1F2329" stroke="#343A43"/>
  <text x="626" y="226" fill="#D8DDE4" font-family="Arial" font-size="15" font-weight="700">Ready to Analyze</text>
  <text x="820" y="226" fill="#8F98A3" font-family="Arial" font-size="12" text-anchor="end">18</text>
  <rect x="626" y="248" width="202" height="54" rx="6" fill="#1B1F25" stroke="#303740"/>
  <text x="644" y="276" fill="#D8DDE4" font-family="Arial" font-size="13">P1 · Review note</text>
  <rect x="626" y="314" width="202" height="54" rx="6" fill="#1B1F25" stroke="#303740"/>
  <text x="644" y="342" fill="#D8DDE4" font-family="Arial" font-size="13">P2 · Notice</text>
  <rect x="626" y="380" width="202" height="54" rx="6" fill="#1B1F25" stroke="#303740"/>
  <text x="644" y="408" fill="#D8DDE4" font-family="Arial" font-size="13">P2 · Team update</text>
  <rect x="626" y="446" width="202" height="54" rx="6" fill="#1B1F25" stroke="#303740"/>
  <text x="644" y="474" fill="#D8DDE4" font-family="Arial" font-size="13">P3 · FYI</text>
  <rect x="626" y="738" width="96" height="34" rx="5" fill="#24303A"/>
  <text x="650" y="760" fill="#D7DCE2" font-family="Arial" font-size="12">Analyze</text>
  <rect x="732" y="738" width="96" height="34" rx="5" fill="#1B1F25" stroke="#303740"/>
  <text x="755" y="760" fill="#AAB3BD" font-family="Arial" font-size="12">Select</text>

  <rect x="874" y="194" width="250" height="632" rx="10" fill="#1F2329" stroke="#343A43"/>
  <text x="898" y="226" fill="#D8DDE4" font-family="Arial" font-size="15" font-weight="700">Recently Analysed</text>
  <text x="1092" y="226" fill="#8F98A3" font-family="Arial" font-size="12" text-anchor="end">24</text>
  <rect x="898" y="248" width="202" height="54" rx="6" fill="#1B1F25" stroke="#303740"/>
  <text x="916" y="276" fill="#D8DDE4" font-family="Arial" font-size="13">Must handle result</text>
  <text x="916" y="294" fill="#8F98A3" font-family="Arial" font-size="11">Draft available</text>
  <rect x="898" y="314" width="202" height="54" rx="6" fill="#1B1F25" stroke="#303740"/>
  <text x="916" y="342" fill="#D8DDE4" font-family="Arial" font-size="13">Waiting result</text>
  <rect x="898" y="380" width="202" height="54" rx="6" fill="#1B1F25" stroke="#303740"/>
  <text x="916" y="408" fill="#D8DDE4" font-family="Arial" font-size="13">Notice result</text>
  <rect x="898" y="738" width="202" height="34" rx="5" fill="#1B1F25" stroke="#303740"/>
  <text x="956" y="760" fill="#AAB3BD" font-family="Arial" font-size="12">Open summary</text>

  <rect x="1146" y="194" width="264" height="632" rx="10" fill="#1F2329" stroke="#343A43"/>
  <text x="1170" y="226" fill="#D8DDE4" font-family="Arial" font-size="15" font-weight="700">Threads</text>
  <text x="1378" y="226" fill="#8F98A3" font-family="Arial" font-size="12" text-anchor="end">9</text>
  <rect x="1170" y="248" width="216" height="70" rx="6" fill="#1B1F25" stroke="#303740"/>
  <text x="1188" y="276" fill="#D8DDE4" font-family="Arial" font-size="13">Active thread</text>
  <text x="1188" y="298" fill="#8F98A3" font-family="Arial" font-size="11">5 messages · updated today</text>
  <rect x="1170" y="332" width="216" height="70" rx="6" fill="#1B1F25" stroke="#303740"/>
  <text x="1188" y="360" fill="#D8DDE4" font-family="Arial" font-size="13">Long thread</text>
  <text x="1188" y="382" fill="#8F98A3" font-family="Arial" font-size="11">12 messages</text>
  <rect x="1170" y="416" width="216" height="70" rx="6" fill="#1B1F25" stroke="#303740"/>
  <text x="1188" y="444" fill="#D8DDE4" font-family="Arial" font-size="13">Need reply thread</text>
  <text x="1188" y="466" fill="#8F98A3" font-family="Arial" font-size="11">Action available</text>
  <rect x="1170" y="738" width="216" height="34" rx="5" fill="#24303A"/>
  <text x="1234" y="760" fill="#D7DCE2" font-family="Arial" font-size="12">Analyze thread</text>

  <text x="330" y="864" fill="#77808A" font-family="Arial" font-size="12">Architecture difference: lanes are the primary structure. Counters live in lane headers. Queue-level actions replace a large global button row.</text>
</svg>
