<svg xmlns="http://www.w3.org/2000/svg" width="1120" height="900" viewBox="0 0 1120 900">
  <rect width="1120" height="900" fill="#14161A"/>
  <text x="58" y="56" fill="#D8DDE4" font-family="Arial" font-size="24" font-weight="700">D3 Component · Settings / Utility Mode</text>
  <text x="58" y="86" fill="#8F98A3" font-family="Arial" font-size="14">Settings are accessible from the workbench, but VS Code Settings remains the source of truth.</text>

  <rect x="58" y="124" width="300" height="718" rx="12" fill="#1E2228" stroke="#343A43"/>
  <text x="86" y="164" fill="#D8DDE4" font-family="Arial" font-size="16" font-weight="700">Left rail utilities</text>
  <rect x="86" y="198" width="244" height="40" rx="6" fill="#181B20" stroke="#2D333C"/>
  <text x="106" y="224" fill="#9EA7B2" font-family="Arial" font-size="13">Open Digest</text>
  <rect x="86" y="248" width="244" height="40" rx="6" fill="#181B20" stroke="#2D333C"/>
  <text x="106" y="274" fill="#9EA7B2" font-family="Arial" font-size="13">Open Summary</text>
  <rect x="86" y="298" width="244" height="40" rx="6" fill="#20242A" stroke="#343A43"/>
  <text x="106" y="324" fill="#D8DDE4" font-family="Arial" font-size="13" font-weight="700">Settings File</text>
  <rect x="86" y="348" width="244" height="40" rx="6" fill="#181B20" stroke="#2D333C"/>
  <text x="106" y="374" fill="#9EA7B2" font-family="Arial" font-size="13">Prompt Config</text>
  <rect x="86" y="398" width="244" height="40" rx="6" fill="#181B20" stroke="#2D333C"/>
  <text x="106" y="424" fill="#9EA7B2" font-family="Arial" font-size="13">Clear Cache</text>
  <text x="86" y="536" fill="#77808A" font-family="Arial" font-size="12">Utilities are not first-screen content.</text>
  <text x="86" y="564" fill="#77808A" font-family="Arial" font-size="12">They are available when needed.</text>

  <rect x="390" y="124" width="300" height="718" rx="12" fill="#1E2228" stroke="#343A43"/>
  <text x="418" y="164" fill="#D8DDE4" font-family="Arial" font-size="16" font-weight="700">Center: current settings</text>
  <rect x="418" y="198" width="244" height="62" rx="7" fill="#20242A" stroke="#303740"/>
  <text x="440" y="224" fill="#D8DDE4" font-family="Arial" font-size="13" font-weight="700">Range</text>
  <text x="440" y="246" fill="#8F98A3" font-family="Arial" font-size="12">Recent hours · max items</text>
  <rect x="418" y="274" width="244" height="62" rx="7" fill="#20242A" stroke="#303740"/>
  <text x="440" y="300" fill="#D8DDE4" font-family="Arial" font-size="13" font-weight="700">Folders</text>
  <text x="440" y="322" fill="#8F98A3" font-family="Arial" font-size="12">Inbox / selected Outlook folders</text>
  <rect x="418" y="350" width="244" height="62" rx="7" fill="#20242A" stroke="#303740"/>
  <text x="440" y="376" fill="#D8DDE4" font-family="Arial" font-size="13" font-weight="700">Model</text>
  <text x="440" y="398" fill="#8F98A3" font-family="Arial" font-size="12">Current Copilot model family</text>
  <rect x="418" y="426" width="244" height="62" rx="7" fill="#20242A" stroke="#303740"/>
  <text x="440" y="452" fill="#D8DDE4" font-family="Arial" font-size="13" font-weight="700">Auto analysis</text>
  <text x="440" y="474" fill="#8F98A3" font-family="Arial" font-size="12">Allowed level / batch size</text>
  <rect x="418" y="720" width="244" height="34" rx="5" fill="#1B1F25" stroke="#303740"/>
  <text x="474" y="742" fill="#AAB3BD" font-family="Arial" font-size="12">Reload settings</text>

  <rect x="722" y="124" width="340" height="718" rx="12" fill="#1E2228" stroke="#343A43"/>
  <text x="750" y="164" fill="#D8DDE4" font-family="Arial" font-size="16" font-weight="700">Right: safe shortcuts</text>
  <text x="750" y="196" fill="#8F98A3" font-family="Arial" font-size="12">Shortcuts should write to VS Code Settings or open config files.</text>
  <rect x="750" y="230" width="264" height="76" rx="7" fill="#20242A" stroke="#303740"/>
  <text x="772" y="258" fill="#D8DDE4" font-family="Arial" font-size="14" font-weight="700">Open VS Code Settings</text>
  <text x="772" y="282" fill="#8F98A3" font-family="Arial" font-size="12">Primary route for configuration.</text>
  <rect x="750" y="326" width="264" height="76" rx="7" fill="#20242A" stroke="#303740"/>
  <text x="772" y="354" fill="#D8DDE4" font-family="Arial" font-size="14" font-weight="700">Open prompt config</text>
  <text x="772" y="378" fill="#8F98A3" font-family="Arial" font-size="12">Classification prompt editing.</text>
  <rect x="750" y="422" width="264" height="76" rx="7" fill="#20242A" stroke="#303740"/>
  <text x="772" y="450" fill="#D8DDE4" font-family="Arial" font-size="14" font-weight="700">Load models</text>
  <text x="772" y="474" fill="#8F98A3" font-family="Arial" font-size="12">Refresh session model list.</text>
  <rect x="750" y="530" width="126" height="34" rx="5" fill="#2B6F88"/>
  <text x="782" y="552" fill="#F4F8FB" font-family="Arial" font-size="12">Open</text>
  <rect x="888" y="530" width="126" height="34" rx="5" fill="#20242A" stroke="#3A414B"/>
  <text x="920" y="552" fill="#B7C0CA" font-family="Arial" font-size="12">Quick Pick</text>
  <text x="750" y="760" fill="#77808A" font-family="Arial" font-size="12">Usage: settings live here only when selected, not as a persistent top block.</text>
</svg>