<svg xmlns="http://www.w3.org/2000/svg" width="1440" height="900" viewBox="0 0 1440 900">
  <rect width="1440" height="900" fill="#14161A"/>
  <rect x="0" y="0" width="52" height="900" fill="#111317"/>
  <rect x="52" y="0" width="248" height="900" fill="#181B20"/>
  <rect x="300" y="0" width="1140" height="900" fill="#14161A"/>

  <rect x="14" y="28" width="24" height="24" rx="5" fill="#2B6F88"/>
  <rect x="14" y="76" width="24" height="24" rx="5" fill="#2A2F36"/>
  <rect x="14" y="124" width="24" height="24" rx="5" fill="#2A2F36"/>

  <text x="76" y="40" fill="#D8DDE4" font-family="Arial" font-size="14" font-weight="700">EASY MAIL</text>
  <text x="76" y="66" fill="#8F98A3" font-family="Arial" font-size="12">Workbench nav</text>
  <rect x="72" y="94" width="204" height="34" rx="6" fill="#242B34" stroke="#4A3B36"/>
  <text x="88" y="116" fill="#F0D4CA" font-family="Arial" font-size="12">Needs Review</text>
  <text x="252" y="116" fill="#F0D4CA" font-family="Arial" font-size="12" text-anchor="end">6</text>
  <rect x="72" y="136" width="204" height="34" rx="6" fill="#20242A" stroke="#343A43"/>
  <text x="88" y="158" fill="#D8DDE4" font-family="Arial" font-size="12">Pending</text>
  <text x="252" y="158" fill="#D8DDE4" font-family="Arial" font-size="12" text-anchor="end">18</text>
  <rect x="72" y="178" width="204" height="34" rx="6" fill="#181B20" stroke="#2D333C"/>
  <text x="88" y="200" fill="#9EA7B2" font-family="Arial" font-size="12">Must Handle</text>
  <text x="252" y="200" fill="#9EA7B2" font-family="Arial" font-size="12" text-anchor="end">4</text>
  <rect x="72" y="220" width="204" height="34" rx="6" fill="#181B20" stroke="#2D333C"/>
  <text x="88" y="242" fill="#9EA7B2" font-family="Arial" font-size="12">Threads</text>
  <text x="252" y="242" fill="#9EA7B2" font-family="Arial" font-size="12" text-anchor="end">9</text>
  <rect x="72" y="716" width="204" height="34" rx="6" fill="#181B20" stroke="#2D333C"/>
  <text x="88" y="738" fill="#9EA7B2" font-family="Arial" font-size="12">Settings File</text>
  <rect x="72" y="758" width="204" height="34" rx="6" fill="#181B20" stroke="#2D333C"/>
  <text x="88" y="780" fill="#9EA7B2" font-family="Arial" font-size="12">Prompt Config</text>

  <text x="330" y="40" fill="#D8DDE4" font-family="Arial" font-size="20" font-weight="700">Direction 3 · Split Workbench</text>
  <text x="330" y="66" fill="#8F98A3" font-family="Arial" font-size="13">Three-zone IA: navigation counts, active queue list, selected item detail.</text>

  <rect x="330" y="92" width="1080" height="64" rx="10" fill="#1E2228" stroke="#343A43"/>
  <text x="358" y="122" fill="#D8DDE4" font-family="Arial" font-size="15" font-weight="700">Idle · 2 selected · last pull 18:32</text>
  <rect x="858" y="108" width="112" height="32" rx="5" fill="#2B6F88"/>
  <text x="881" y="129" fill="#F4F8FB" font-family="Arial" font-size="12" font-weight="700">Fetch New</text>
  <rect x="982" y="108" width="132" height="32" rx="5" fill="#24303A"/>
  <text x="1006" y="129" fill="#D7DCE2" font-family="Arial" font-size="12">Analyze Batch</text>
  <rect x="1126" y="108" width="86" height="32" rx="5" fill="#20242A" stroke="#3A414B"/>
  <text x="1147" y="129" fill="#B7C0CA" font-family="Arial" font-size="12">Refresh</text>
  <rect x="1224" y="108" width="110" height="32" rx="5" fill="#1B1F25" stroke="#303740"/>
  <text x="1251" y="129" fill="#AAB3BD" font-family="Arial" font-size="12">Reports</text>

  <rect x="330" y="180" width="220" height="646" rx="10" fill="#1E2228" stroke="#343A43"/>
  <text x="354" y="212" fill="#D8DDE4" font-family="Arial" font-size="14" font-weight="700">Sections</text>
  <rect x="354" y="236" width="172" height="34" rx="5" fill="#242B34" stroke="#4A3B36"/>
  <text x="370" y="258" fill="#F0D4CA" font-family="Arial" font-size="12">Needs Review</text>
  <text x="506" y="258" fill="#F0D4CA" font-family="Arial" font-size="12" text-anchor="end">6</text>
  <rect x="354" y="278" width="172" height="34" rx="5" fill="#20242A" stroke="#343A43"/>
  <text x="370" y="300" fill="#D8DDE4" font-family="Arial" font-size="12">Pending</text>
  <text x="506" y="300" fill="#D8DDE4" font-family="Arial" font-size="12" text-anchor="end">18</text>
  <rect x="354" y="320" width="172" height="34" rx="5" fill="#181B20" stroke="#2D333C"/>
  <text x="370" y="342" fill="#9EA7B2" font-family="Arial" font-size="12">Must Handle</text>
  <text x="506" y="342" fill="#9EA7B2" font-family="Arial" font-size="12" text-anchor="end">4</text>
  <rect x="354" y="362" width="172" height="34" rx="5" fill="#181B20" stroke="#2D333C"/>
  <text x="370" y="384" fill="#9EA7B2" font-family="Arial" font-size="12">Threads</text>
  <text x="506" y="384" fill="#9EA7B2" font-family="Arial" font-size="12" text-anchor="end">9</text>
  <line x1="354" y1="430" x2="526" y2="430" stroke="#2D333C"/>
  <text x="354" y="462" fill="#8F98A3" font-family="Arial" font-size="11" font-weight="700">TELEMETRY</text>
  <text x="354" y="492" fill="#D8DDE4" font-family="Arial" font-size="22" font-weight="700">42</text>
  <text x="404" y="492" fill="#8F98A3" font-family="Arial" font-size="12">Pulled</text>
  <text x="354" y="532" fill="#D8DDE4" font-family="Arial" font-size="22" font-weight="700">24</text>
  <text x="404" y="532" fill="#8F98A3" font-family="Arial" font-size="12">Analysed</text>
  <rect x="354" y="746" width="172" height="34" rx="5" fill="#181B20" stroke="#2D333C"/>
  <text x="370" y="768" fill="#9EA7B2" font-family="Arial" font-size="12">Open Settings</text>

  <rect x="574" y="180" width="390" height="646" rx="10" fill="#1E2228" stroke="#343A43"/>
  <text x="598" y="212" fill="#D8DDE4" font-family="Arial" font-size="14" font-weight="700">Active queue</text>
  <text x="932" y="212" fill="#8F98A3" font-family="Arial" font-size="12" text-anchor="end">Needs Review</text>
  <rect x="598" y="236" width="342" height="62" rx="6" fill="#242B34" stroke="#4A3B36"/>
  <rect x="598" y="236" width="5" height="62" fill="#C59D5F"/>
  <text x="620" y="262" fill="#F0D4CA" font-family="Arial" font-size="13" font-weight="700">High level mail</text>
  <text x="620" y="284" fill="#C9A89C" font-family="Arial" font-size="11">Manual decision · received 09:28</text>
  <rect x="598" y="310" width="342" height="62" rx="6" fill="#20242A" stroke="#343A43"/>
  <text x="620" y="336" fill="#D8DDE4" font-family="Arial" font-size="13" font-weight="700">Partial thread</text>
  <text x="620" y="358" fill="#8F98A3" font-family="Arial" font-size="11">Open before analysis · 5 messages</text>
  <rect x="598" y="384" width="342" height="62" rx="6" fill="#20242A" stroke="#343A43"/>
  <text x="620" y="410" fill="#D8DDE4" font-family="Arial" font-size="13" font-weight="700">Review note</text>
  <text x="620" y="432" fill="#8F98A3" font-family="Arial" font-size="11">P1 · internal</text>
  <rect x="598" y="458" width="342" height="62" rx="6" fill="#20242A" stroke="#343A43"/>
  <text x="620" y="484" fill="#D8DDE4" font-family="Arial" font-size="13" font-weight="700">Team update</text>
  <text x="620" y="506" fill="#8F98A3" font-family="Arial" font-size="11">P2 · ready</text>
  <rect x="598" y="738" width="158" height="34" rx="5" fill="#24303A"/>
  <text x="632" y="760" fill="#D7DCE2" font-family="Arial" font-size="12">Analyze selected</text>
  <rect x="768" y="738" width="120" height="34" rx="5" fill="#1B1F25" stroke="#303740"/>
  <text x="795" y="760" fill="#AAB3BD" font-family="Arial" font-size="12">Clear select</text>

  <rect x="988" y="180" width="422" height="646" rx="10" fill="#1E2228" stroke="#4A3B36"/>
  <text x="1012" y="212" fill="#F0D4CA" font-family="Arial" font-size="15" font-weight="700">Selected item detail</text>
  <text x="1012" y="240" fill="#C9A89C" font-family="Arial" font-size="12">High level mail · manual decision needed</text>
  <rect x="1012" y="268" width="170" height="32" rx="5" fill="#2C333D" stroke="#5A4B42"/>
  <text x="1062" y="289" fill="#F0D4CA" font-family="Arial" font-size="12">Confirm</text>
  <rect x="1194" y="268" width="130" height="32" rx="5" fill="#1B1F25" stroke="#303740"/>
  <text x="1232" y="289" fill="#AAB3BD" font-family="Arial" font-size="12">Skip</text>
  <rect x="1012" y="324" width="350" height="88" rx="6" fill="#20242A" stroke="#303740"/>
  <text x="1034" y="352" fill="#D8DDE4" font-family="Arial" font-size="13" font-weight="700">Reason</text>
  <text x="1034" y="378" fill="#AEB7C2" font-family="Arial" font-size="12">Show classification, source, and review rationale here.</text>
  <rect x="1012" y="434" width="350" height="114" rx="6" fill="#20242A" stroke="#303740"/>
  <text x="1034" y="462" fill="#D8DDE4" font-family="Arial" font-size="13" font-weight="700">Thread context</text>
  <text x="1034" y="488" fill="#AEB7C2" font-family="Arial" font-size="12">Participants, message count, and timeline summary.</text>
  <text x="1034" y="514" fill="#8F98A3" font-family="Arial" font-size="11">Detail pane prevents long cards from stretching the queue.</text>
  <rect x="1012" y="570" width="350" height="116" rx="6" fill="#20242A" stroke="#303740"/>
  <text x="1034" y="598" fill="#D8DDE4" font-family="Arial" font-size="13" font-weight="700">Suggested action</text>
  <text x="1034" y="624" fill="#AEB7C2" font-family="Arial" font-size="12">Primary action, report link, draft, or ignore action.</text>
  <rect x="1012" y="714" width="112" height="34" rx="5" fill="#2B6F88"/>
  <text x="1038" y="736" fill="#F4F8FB" font-family="Arial" font-size="12">Open item</text>
  <rect x="1136" y="714" width="126" height="34" rx="5" fill="#20242A" stroke="#3A414B"/>
  <text x="1160" y="736" fill="#B7C0CA" font-family="Arial" font-size="12">Open thread</text>

  <text x="330" y="864" fill="#77808A" font-family="Arial" font-size="12">Architecture difference: work is selection-based. Left counts navigate, center queue scans, right pane holds full reason, timeline, draft, and actions.</text>
</svg>
