<svg xmlns="http://www.w3.org/2000/svg" width="980" height="220" viewBox="0 0 980 220">
<rect width="980" height="220" fill="#181A1F"/>
<rect x="18" y="18" width="944" height="184" rx="10" fill="#20242A" stroke="#343A43"/>
<text x="38" y="48" fill="#D7DCE2" font-family="Arial" font-size="15" font-weight="700">Easy Mail</text>
<text x="38" y="72" fill="#8F98A3" font-family="Arial" font-size="12">Local Outlook / security-aware analysis</text>
<rect x="38" y="108" width="128" height="34" rx="5" fill="#2B6F88"/>
<text x="59" y="130" fill="#F2F7FA" font-family="Arial" font-size="13" font-weight="700">Fetch New</text>
<rect x="176" y="108" width="176" height="34" rx="5" fill="#24303A" stroke="#3C4652"/>
<text x="194" y="130" fill="#E4E8ED" font-family="Arial" font-size="13">Analyze Next Batch 5</text>
<rect x="362" y="108" width="132" height="34" rx="5" fill="#20242A" stroke="#3A414B"/>
<text x="385" y="130" fill="#B7C0CA" font-family="Arial" font-size="13">More History</text>
<rect x="504" y="108" width="92" height="34" rx="5" fill="#20242A" stroke="#3A414B"/>
<text x="527" y="130" fill="#B7C0CA" font-family="Arial" font-size="13">Refresh</text>
<line x1="625" y1="36" x2="625" y2="182" stroke="#313842"/>
<text x="648" y="54" fill="#8F98A3" font-family="Arial" font-size="11" font-weight="700">OUTPUT</text>
<rect x="648" y="72" width="122" height="30" rx="5" fill="#20242A" stroke="#3A414B"/>
<text x="671" y="92" fill="#B7C0CA" font-family="Arial" font-size="12">Open Summary</text>
<rect x="780" y="72" width="128" height="30" rx="5" fill="#20242A" stroke="#3A414B"/>
<text x="801" y="92" fill="#B7C0CA" font-family="Arial" font-size="12">Generate Reports</text>
<text x="648" y="132" fill="#8F98A3" font-family="Arial" font-size="11" font-weight="700">UTILITIES</text>
<rect x="648" y="150" width="96" height="28" rx="5" fill="#1D2026" stroke="#343A43"/>
<text x="667" y="169" fill="#AAB3BD" font-family="Arial" font-size="12">Settings</text>
<rect x="754" y="150" width="108" height="28" rx="5" fill="#1D2026" stroke="#343A43"/>
<text x="773" y="169" fill="#AAB3BD" font-family="Arial" font-size="12">Prompt Config</text>
<rect x="872" y="150" width="58" height="28" rx="5" fill="#1D2026" stroke="#4A3B36"/>
<text x="889" y="169" fill="#C9A89C" font-family="Arial" font-size="12">Cache</text>
</svg>
