<svg xmlns="http://www.w3.org/2000/svg" width="1440" height="900" viewBox="0 0 1440 900">
  <rect width="1440" height="900" fill="#15171B"/>
  <rect x="0" y="0" width="52" height="900" fill="#111317"/>
  <rect x="52" y="0" width="248" height="900" fill="#181B20"/>
  <rect x="300" y="0" width="1140" height="900" fill="#15171B"/>

  <rect x="14" y="28" width="24" height="24" rx="5" fill="#2B6F88"/>
  <rect x="14" y="76" width="24" height="24" rx="5" fill="#2A2F36"/>
  <rect x="14" y="124" width="24" height="24" rx="5" fill="#2A2F36"/>
  <rect x="14" y="172" width="24" height="24" rx="5" fill="#2A2F36"/>

  <text x="76" y="40" fill="#D8DDE4" font-family="Arial" font-size="14" font-weight="700">EASY MAIL</text>
  <text x="76" y="66" fill="#8F98A3" font-family="Arial" font-size="12">Dashboard</text>
  <rect x="72" y="94" width="204" height="34" rx="6" fill="#20242A" stroke="#343A43"/>
  <text x="88" y="116" fill="#D8DDE4" font-family="Arial" font-size="12">Overview</text>
  <rect x="72" y="136" width="204" height="34" rx="6" fill="#181B20" stroke="#2D333C"/>
  <text x="88" y="158" fill="#9EA7B2" font-family="Arial" font-size="12">Pending Mail</text>
  <rect x="72" y="178" width="204" height="34" rx="6" fill="#181B20" stroke="#2D333C"/>
  <text x="88" y="200" fill="#9EA7B2" font-family="Arial" font-size="12">Manual Review</text>
  <rect x="72" y="220" width="204" height="34" rx="6" fill="#181B20" stroke="#2D333C"/>
  <text x="88" y="242" fill="#9EA7B2" font-family="Arial" font-size="12">Threads</text>
  <rect x="72" y="262" width="204" height="34" rx="6" fill="#181B20" stroke="#2D333C"/>
  <text x="88" y="284" fill="#9EA7B2" font-family="Arial" font-size="12">Reports</text>

  <text x="330" y="40" fill="#D8DDE4" font-family="Arial" font-size="20" font-weight="700">Direction 1 · Operations Console</text>
  <text x="330" y="66" fill="#8F98A3" font-family="Arial" font-size="13">Single embedded dashboard. First screen answers: current state, next action, attention queues.</text>

  <rect x="330" y="92" width="1080" height="128" rx="10" fill="#1F2329" stroke="#343A43"/>
  <text x="358" y="126" fill="#D8DDE4" font-family="Arial" font-size="16" font-weight="700">Run state</text>
  <rect x="358" y="146" width="8" height="46" rx="4" fill="#C59D5F"/>
  <text x="382" y="160" fill="#F0D4CA" font-family="Arial" font-size="15" font-weight="700">Needs review before next analysis</text>
  <text x="382" y="184" fill="#AEB7C2" font-family="Arial" font-size="12">6 items require user decision · last pull 18:32 · model available</text>
  <rect x="790" y="126" width="120" height="34" rx="5" fill="#2B6F88"/>
  <text x="815" y="148" fill="#F4F8FB" font-family="Arial" font-size="13" font-weight="700">Fetch New</text>
  <rect x="922" y="126" width="164" height="34" rx="5" fill="#24303A" stroke="#3A414B"/>
  <text x="946" y="148" fill="#D8DDE4" font-family="Arial" font-size="13">Analyze Next 5</text>
  <rect x="1098" y="126" width="112" height="34" rx="5" fill="#20242A" stroke="#3A414B"/>
  <text x="1124" y="148" fill="#B7C0CA" font-family="Arial" font-size="13">Refresh</text>
  <rect x="1222" y="126" width="148" height="34" rx="5" fill="#1B1F25" stroke="#303740"/>
  <text x="1248" y="148" fill="#AAB3BD" font-family="Arial" font-size="13">Reports / Settings</text>

  <rect x="330" y="240" width="1080" height="108" rx="10" fill="#1F2329" stroke="#343A43"/>
  <rect x="358" y="264" width="190" height="60" rx="7" fill="#242B34" stroke="#4A3B36"/>
  <text x="378" y="288" fill="#C9A89C" font-family="Arial" font-size="11" font-weight="700">NEEDS REVIEW</text>
  <text x="378" y="316" fill="#F0D4CA" font-family="Arial" font-size="26" font-weight="700">6</text>
  <rect x="564" y="264" width="190" height="60" rx="7" fill="#242B34" stroke="#3D4651"/>
  <text x="584" y="288" fill="#B7C0CA" font-family="Arial" font-size="11" font-weight="700">MUST HANDLE</text>
  <text x="584" y="316" fill="#E6EAF0" font-family="Arial" font-size="26" font-weight="700">4</text>
  <rect x="770" y="264" width="190" height="60" rx="7" fill="#242B34" stroke="#3D4651"/>
  <text x="790" y="288" fill="#B7C0CA" font-family="Arial" font-size="11" font-weight="700">PENDING READY</text>
  <text x="790" y="316" fill="#E6EAF0" font-family="Arial" font-size="26" font-weight="700">18</text>
  <text x="1008" y="288" fill="#8F98A3" font-family="Arial" font-size="12">Pulled 42 · Analysed 24 · Threads 9</text>
  <text x="1008" y="316" fill="#8F98A3" font-family="Arial" font-size="12">Waiting 3 · Notices 11</text>

  <rect x="330" y="372" width="520" height="214" rx="10" fill="#1F2329" stroke="#4A3B36"/>
  <text x="358" y="404" fill="#F0D4CA" font-family="Arial" font-size="16" font-weight="700">Manual review</text>
  <text x="812" y="404" fill="#C9A89C" font-family="Arial" font-size="12" text-anchor="end">6 items</text>
  <rect x="358" y="424" width="464" height="50" rx="6" fill="#24272E" stroke="#4A3B36"/>
  <text x="378" y="446" fill="#F1F4F7" font-family="Arial" font-size="13" font-weight="700">High level mail</text>
  <text x="378" y="466" fill="#C9A89C" font-family="Arial" font-size="12">Review reason and decide</text>
  <rect x="706" y="436" width="92" height="26" rx="4" fill="#2C333D" stroke="#5A4B42"/>
  <text x="730" y="454" fill="#F0D4CA" font-family="Arial" font-size="11">Review</text>
  <rect x="358" y="486" width="464" height="50" rx="6" fill="#24272E" stroke="#4A3B36"/>
  <text x="378" y="508" fill="#F1F4F7" font-family="Arial" font-size="13" font-weight="700">Partial thread</text>
  <text x="378" y="528" fill="#C9A89C" font-family="Arial" font-size="12">Open before analysis</text>

  <rect x="874" y="372" width="536" height="214" rx="10" fill="#1F2329" stroke="#4A3B36"/>
  <text x="902" y="404" fill="#F0D4CA" font-family="Arial" font-size="16" font-weight="700">Must handle today</text>
  <text x="1372" y="404" fill="#C9A89C" font-family="Arial" font-size="12" text-anchor="end">4 active</text>
  <rect x="902" y="424" width="480" height="50" rx="6" fill="#24272E" stroke="#4A3B36"/>
  <rect x="902" y="424" width="5" height="50" fill="#C59D5F"/>
  <text x="924" y="454" fill="#F1F4F7" font-family="Arial" font-size="13" font-weight="700">Reply needed</text>
  <text x="1170" y="454" fill="#C9A89C" font-family="Arial" font-size="12">P0 · thread · 10:40</text>
  <rect x="1280" y="436" width="80" height="26" rx="4" fill="#2B6F88"/>
  <text x="1300" y="454" fill="#F4F8FB" font-family="Arial" font-size="11">Draft</text>
  <rect x="902" y="486" width="480" height="50" rx="6" fill="#24272E" stroke="#3A414B"/>
  <rect x="902" y="486" width="5" height="50" fill="#6A8EA1"/>
  <text x="924" y="516" fill="#F1F4F7" font-family="Arial" font-size="13" font-weight="700">Follow-up item</text>
  <text x="1170" y="516" fill="#8F98A3" font-family="Arial" font-size="12">P1 · waiting</text>

  <rect x="330" y="610" width="520" height="236" rx="10" fill="#1F2329" stroke="#343A43"/>
  <text x="358" y="642" fill="#D8DDE4" font-family="Arial" font-size="16" font-weight="700">Pending ready for analysis</text>
  <text x="812" y="642" fill="#8F98A3" font-family="Arial" font-size="12" text-anchor="end">18 items</text>
  <rect x="358" y="664" width="464" height="44" rx="6" fill="#1C2026" stroke="#303740"/>
  <text x="378" y="692" fill="#E0E5EB" font-family="Arial" font-size="13">P1 · Review note</text>
  <rect x="716" y="673" width="82" height="26" rx="4" fill="#24303A"/>
  <text x="738" y="691" fill="#D7DCE2" font-family="Arial" font-size="11">Analyze</text>
  <rect x="358" y="718" width="464" height="44" rx="6" fill="#1C2026" stroke="#303740"/>
  <text x="378" y="746" fill="#E0E5EB" font-family="Arial" font-size="13">P2 · Status notice</text>
  <rect x="716" y="727" width="82" height="26" rx="4" fill="#1D2026" stroke="#3A414B"/>
  <text x="740" y="745" fill="#AAB3BD" font-family="Arial" font-size="11">Select</text>
  <rect x="358" y="772" width="464" height="44" rx="6" fill="#1C2026" stroke="#303740"/>
  <text x="378" y="800" fill="#E0E5EB" font-family="Arial" font-size="13">P2 · Team update</text>

  <rect x="874" y="610" width="536" height="236" rx="10" fill="#1F2329" stroke="#343A43"/>
  <text x="902" y="642" fill="#D8DDE4" font-family="Arial" font-size="16" font-weight="700">Quiet lower sections</text>
  <rect x="902" y="664" width="480" height="38" rx="6" fill="#1C2026" stroke="#303740"/>
  <text x="924" y="688" fill="#AEB7C2" font-family="Arial" font-size="13">Waiting for me · 3</text>
  <rect x="902" y="712" width="480" height="38" rx="6" fill="#1C2026" stroke="#303740"/>
  <text x="924" y="736" fill="#AEB7C2" font-family="Arial" font-size="13">Notice · 11</text>
  <rect x="902" y="760" width="480" height="38" rx="6" fill="#1C2026" stroke="#303740"/>
  <text x="924" y="784" fill="#AEB7C2" font-family="Arial" font-size="13">Threads · 9</text>
  <rect x="902" y="808" width="480" height="24" rx="5" fill="#181B20" stroke="#2D333C"/>
  <text x="924" y="825" fill="#77808A" font-family="Arial" font-size="11">Settings collapsed · Reports collapsed · Logs in Output Channel</text>
</svg>
