<svg xmlns="http://www.w3.org/2000/svg" width="900" height="900" viewBox="0 0 900 900">
  <rect width="900" height="900" fill="#14161A"/>
  <text x="54" y="56" fill="#D8DDE4" font-family="Arial" font-size="24" font-weight="700">D3 Component · Left Navigation Rail</text>
  <text x="54" y="86" fill="#8F98A3" font-family="Arial" font-size="14">Stats become navigation. The rail controls the center queue mode.</text>

  <rect x="54" y="126" width="312" height="704" rx="12" fill="#1E2228" stroke="#343A43"/>
  <text x="82" y="164" fill="#D8DDE4" font-family="Arial" font-size="15" font-weight="700">Queues</text>
  <rect x="82" y="190" width="256" height="42" rx="6" fill="#242B34" stroke="#4A3B36"/>
  <rect x="82" y="190" width="4" height="42" fill="#C59D5F"/>
  <text x="104" y="216" fill="#F0D4CA" font-family="Arial" font-size="13" font-weight="700">Needs Review</text>
  <text x="316" y="216" fill="#F0D4CA" font-family="Arial" font-size="13" text-anchor="end">6</text>
  <rect x="82" y="242" width="256" height="42" rx="6" fill="#20242A" stroke="#343A43"/>
  <text x="104" y="268" fill="#D8DDE4" font-family="Arial" font-size="13">Pending</text>
  <text x="316" y="268" fill="#D8DDE4" font-family="Arial" font-size="13" text-anchor="end">18</text>
  <rect x="82" y="294" width="256" height="42" rx="6" fill="#181B20" stroke="#2D333C"/>
  <text x="104" y="320" fill="#AEB7C2" font-family="Arial" font-size="13">Must Handle</text>
  <text x="316" y="320" fill="#AEB7C2" font-family="Arial" font-size="13" text-anchor="end">4</text>
  <rect x="82" y="346" width="256" height="42" rx="6" fill="#181B20" stroke="#2D333C"/>
  <text x="104" y="372" fill="#AEB7C2" font-family="Arial" font-size="13">Waiting For Me</text>
  <text x="316" y="372" fill="#AEB7C2" font-family="Arial" font-size="13" text-anchor="end">3</text>
  <rect x="82" y="398" width="256" height="42" rx="6" fill="#181B20" stroke="#2D333C"/>
  <text x="104" y="424" fill="#AEB7C2" font-family="Arial" font-size="13">Follow Up</text>
  <text x="316" y="424" fill="#AEB7C2" font-family="Arial" font-size="13" text-anchor="end">5</text>
  <rect x="82" y="450" width="256" height="42" rx="6" fill="#181B20" stroke="#2D333C"/>
  <text x="104" y="476" fill="#AEB7C2" font-family="Arial" font-size="13">Notice</text>
  <text x="316" y="476" fill="#AEB7C2" font-family="Arial" font-size="13" text-anchor="end">11</text>

  <text x="82" y="546" fill="#77808A" font-family="Arial" font-size="11" font-weight="700">THREADS & OUTPUTS</text>
  <rect x="82" y="568" width="256" height="42" rx="6" fill="#181B20" stroke="#2D333C"/>
  <text x="104" y="594" fill="#AEB7C2" font-family="Arial" font-size="13">Threads</text>
  <text x="316" y="594" fill="#AEB7C2" font-family="Arial" font-size="13" text-anchor="end">9</text>
  <rect x="82" y="620" width="256" height="42" rx="6" fill="#181B20" stroke="#2D333C"/>
  <text x="104" y="646" fill="#AEB7C2" font-family="Arial" font-size="13">Reports</text>
  <text x="316" y="646" fill="#AEB7C2" font-family="Arial" font-size="13" text-anchor="end">3</text>

  <text x="82" y="700" fill="#77808A" font-family="Arial" font-size="11" font-weight="700">UTILITIES</text>
  <rect x="82" y="722" width="256" height="34" rx="5" fill="#181B20" stroke="#2D333C"/>
  <text x="104" y="744" fill="#9EA7B2" font-family="Arial" font-size="12">Settings File</text>
  <rect x="82" y="764" width="256" height="34" rx="5" fill="#181B20" stroke="#2D333C"/>
  <text x="104" y="786" fill="#9EA7B2" font-family="Arial" font-size="12">Prompt Config</text>

  <rect x="420" y="126" width="426" height="704" rx="12" fill="#1E2228" stroke="#343A43"/>
  <text x="450" y="166" fill="#D8DDE4" font-family="Arial" font-size="17" font-weight="700">Behavior spec</text>
  <text x="450" y="212" fill="#F0D4CA" font-family="Arial" font-size="13" font-weight="700">Active row</text>
  <text x="450" y="238" fill="#AEB7C2" font-family="Arial" font-size="13">Controls the center queue and right detail placeholder.</text>
  <text x="450" y="288" fill="#F0D4CA" font-family="Arial" font-size="13" font-weight="700">Attention row</text>
  <text x="450" y="314" fill="#AEB7C2" font-family="Arial" font-size="13">Warm accent only when user action blocks processing.</text>
  <text x="450" y="364" fill="#D8DDE4" font-family="Arial" font-size="13" font-weight="700">Quiet row</text>
  <text x="450" y="390" fill="#AEB7C2" font-family="Arial" font-size="13">Muted but still visible for navigation stability.</text>
  <text x="450" y="440" fill="#D8DDE4" font-family="Arial" font-size="13" font-weight="700">Utility row</text>
  <text x="450" y="466" fill="#AEB7C2" font-family="Arial" font-size="13">Opens settings/report modes in the right pane or VS Code command.</text>
  <line x1="450" y1="520" x2="800" y2="520" stroke="#2D333C"/>
  <text x="450" y="558" fill="#77808A" font-family="Arial" font-size="12">Near term: render as webview rail.</text>
  <text x="450" y="586" fill="#77808A" font-family="Arial" font-size="12">Medium term: consider native Tree View.</text>
  <text x="450" y="614" fill="#77808A" font-family="Arial" font-size="12">Do not duplicate VS Code Settings as a new settings system.</text>
</svg>